<svg width="60" height="60" viewBox="0 0 60 60" fill="none" xmlns="http://www.w3.org/2000/svg">
<g clip-path="url(#clip0_1394_8681)">
<rect width="60" height="60" fill="white"/>
<rect width="60" height="60" fill="white"/>
<circle cx="30" cy="30" r="26" fill="url(#paint0_linear_1394_8681)"/>
<path fill-rule="evenodd" clip-rule="evenodd" d="M37.2278 18.6365H38.8225C41.6805 18.6365 44 20.9255 44 23.746V24.5226H16V23.746C16 20.9255 18.3195 18.6365 21.1775 18.6365H22.7722V17.0219C22.7722 16.4496 23.2278 16 23.8077 16C24.3876 16 24.8432 16.4496 24.8432 17.0219V18.6365H35.1568V17.0219C35.1568 16.4496 35.6124 16 36.1923 16C36.7722 16 37.2278 16.4496 37.2278 17.0219V18.6365ZM21.1775 44C18.3195 44 16 41.711 16 38.8905V26.5664H44V38.8905C44 41.711 41.6805 44 38.8225 44H21.1775ZM25.9615 33.2292C25.6095 32.8 24.9675 32.6978 24.5118 33.0453L24.4911 33.0044C24.0355 33.3518 23.9527 33.9854 24.3047 34.4351L25.6095 36.1314C26.1272 36.8263 26.9349 37.2146 27.8047 37.2146H27.8876C28.4053 37.1942 28.8817 37.0307 29.2959 36.765C29.7515 37.0511 30.2485 37.2146 30.787 37.2146H30.8698C31.7604 37.1942 32.5888 36.7445 33.0858 36.0088L35.6953 32.146C36.0059 31.6759 35.8817 31.0423 35.4053 30.7358C35.3846 30.7153 35.3639 30.7153 35.3639 30.7153C34.9083 30.4088 34.287 30.5314 33.9763 31.0015L31.3669 34.8642C31.2426 35.0482 31.0355 35.1708 30.8077 35.1708C30.7663 35.1708 30.6834 35.1504 30.6834 35.1504L32.713 32.146C33.0237 31.6759 32.8994 31.0423 32.4231 30.7358C32.4024 30.7153 32.3817 30.7153 32.3817 30.7153C31.926 30.4088 31.3047 30.5314 30.9941 31.0015L29.2337 33.6175L28.9231 33.2088C28.571 32.7796 27.929 32.6774 27.4734 33.0248C27.0178 33.3723 26.9349 34.0059 27.287 34.4555L27.8462 35.1913C27.6183 35.2117 27.4112 35.1095 27.287 34.9256L25.9615 33.2292Z" fill="url(#paint1_linear_1394_8681)"/>
</g>
<defs>
<linearGradient id="paint0_linear_1394_8681" x1="4" y1="4" x2="65.8753" y2="21.9402" gradientUnits="userSpaceOnUse">
<stop stop-color="#13AE81"/>
<stop offset="1" stop-color="#3DCFA4"/>
</linearGradient>
<linearGradient id="paint1_linear_1394_8681" x1="21.6151" y1="-5.74686" x2="49.511" y2="-0.303984" gradientUnits="userSpaceOnUse">
<stop stop-color="white"/>
<stop offset="1" stop-color="#E6E6E6"/>
</linearGradient>
<clipPath id="clip0_1394_8681">
<rect width="60" height="60" fill="white"/>
</clipPath>
</defs>
</svg>
