<svg width="120" height="30" viewBox="0 0 120 30" fill="none" xmlns="http://www.w3.org/2000/svg">
	<path d="M111.421 24.5775C109.822 24.5775 108.447 24.2504 107.297 23.5961C106.154 22.9353 105.272 22.0167 104.65 20.8403C104.036 19.6573 103.729 18.286 103.729 16.7263C103.729 15.1601 104.036 13.7888 104.65 12.6124C105.272 11.4294 106.154 10.5108 107.297 9.85655C108.447 9.19567 109.822 8.86523 111.421 8.86523C113.02 8.86523 114.392 9.19567 115.535 9.85655C116.685 10.5108 117.567 11.4294 118.182 12.6124C118.803 13.7888 119.114 15.1601 119.114 16.7263C119.114 18.286 118.803 19.6573 118.182 20.8403C117.567 22.0167 116.685 22.9353 115.535 23.5961C114.392 24.2504 113.02 24.5775 111.421 24.5775ZM111.451 20.9196C112.032 20.9196 112.525 20.7412 112.928 20.3843C113.331 20.0274 113.638 19.5318 113.85 18.8973C114.068 18.2629 114.177 17.5293 114.177 16.6966C114.177 15.8507 114.068 15.1105 113.85 14.4761C113.638 13.8416 113.331 13.346 112.928 12.9891C112.525 12.6322 112.032 12.4538 111.451 12.4538C110.849 12.4538 110.341 12.6322 109.924 12.9891C109.514 13.346 109.201 13.8416 108.982 14.4761C108.771 15.1105 108.665 15.8507 108.665 16.6966C108.665 17.5293 108.771 18.2629 108.982 18.8973C109.201 19.5318 109.514 20.0274 109.924 20.3843C110.341 20.7412 110.849 20.9196 111.451 20.9196Z" fill="#161F1C"/>
	<path d="M81.1558 24.2899L75.2476 3.98779H80.67L83.7332 17.2912H83.9017L87.4011 3.98779H91.8223L95.3217 17.321H95.4902L98.5632 3.98779H103.976L98.0775 24.2899H93.3489L89.691 11.9778H89.5324L85.8744 24.2899H81.1558Z" fill="#161F1C"/>
	<path d="M62.6238 29.9998C62.0422 29.9998 61.4937 29.9535 60.9782 29.861C60.4627 29.7751 60.0199 29.6594 59.6498 29.514L60.7204 25.9949C61.1963 26.1535 61.6258 26.246 62.0092 26.2724C62.3991 26.2989 62.7328 26.2361 63.0104 26.0841C63.2946 25.9387 63.5126 25.6776 63.6646 25.3009L63.853 24.8449L58.4404 9.06323H63.516L66.3214 19.928H66.48L69.325 9.06323H74.4303L68.6906 25.747C68.413 26.5797 68.0198 27.3133 67.5109 27.9477C67.0087 28.5888 66.3577 29.0911 65.5581 29.4545C64.765 29.818 63.7869 29.9998 62.6238 29.9998Z" fill="#161F1C"/>
	<path d="M33.8975 3.98779H39.9742L45.129 16.5576H45.367L50.5218 3.98779H56.5985V24.2899H51.8204V11.8192H51.6519L46.7746 24.161H43.7214L38.8441 11.7498H38.6756V24.2899H33.8975V3.98779Z" fill="#161F1C"/>
	<circle cx="13" cy="13" r="13" fill="url(#paint0_linear_10_364)"/>
	<path fill-rule="evenodd" clip-rule="evenodd" d="M16.6139 7.31825H17.4112C18.8402 7.31825 20 8.46277 20 9.87299V10.2613H6V9.87299C6 8.46277 7.15976 7.31825 8.58876 7.31825H9.38609V6.51095C9.38609 6.22482 9.61391 6 9.90385 6C10.1938 6 10.4216 6.22482 10.4216 6.51095V7.31825H15.5784V6.51095C15.5784 6.22482 15.8062 6 16.0962 6C16.3861 6 16.6139 6.22482 16.6139 6.51095V7.31825ZM8.58876 20.0003C7.15977 20.0003 6.00001 18.8557 6.00001 17.4455V11.2835H20V17.4455C20 18.8557 18.8402 20.0003 17.4113 20.0003H8.58876ZM10.9808 14.6149C10.8047 14.4003 10.4837 14.3492 10.2559 14.5229L10.2456 14.5024C10.0178 14.6762 9.97634 14.993 10.1524 15.2178L10.8047 16.066C11.0636 16.4134 11.4675 16.6076 11.9024 16.6076H11.9438C12.2027 16.5973 12.4408 16.5156 12.6479 16.3827C12.8757 16.5258 13.1243 16.6076 13.3935 16.6076H13.4349C13.8802 16.5973 14.2944 16.3725 14.5429 16.0046L15.8476 14.0733C16.003 13.8382 15.9408 13.5214 15.7027 13.3681C15.6923 13.3579 15.682 13.3579 15.682 13.3579C15.4541 13.2046 15.1435 13.266 14.9882 13.501L13.6834 15.4324C13.6213 15.5243 13.5178 15.5857 13.4039 15.5857C13.3831 15.5857 13.3417 15.5754 13.3417 15.5754L14.3565 14.0733C14.5118 13.8382 14.4497 13.5214 14.2115 13.3681C14.2012 13.3579 14.1908 13.3579 14.1908 13.3579C13.963 13.2046 13.6524 13.266 13.497 13.501L12.6169 14.809L12.4615 14.6046C12.2855 14.39 11.9645 14.3389 11.7367 14.5127C11.5089 14.6864 11.4675 15.0032 11.6435 15.228L11.9231 15.5959C11.8092 15.6061 11.7056 15.555 11.6435 15.463L10.9808 14.6149Z" fill="url(#paint1_linear_10_364)"/>
	<defs>
	<linearGradient id="paint0_linear_10_364" x1="0" y1="0" x2="30.9377" y2="8.97009" gradientUnits="userSpaceOnUse">
	<stop stop-color="#47D6E6"/>
	<stop offset="1" stop-color="#00A7CC"/>
	</linearGradient>
	<linearGradient id="paint1_linear_10_364" x1="8.80757" y1="-4.87363" x2="22.7555" y2="-2.15223" gradientUnits="userSpaceOnUse">
	<stop stop-color="white"/>
	<stop offset="1" stop-color="#E6E6E6"/>
	</linearGradient>
	</defs>
	</svg>
