<svg width="349" height="58" viewBox="0 0 349 58" fill="none" xmlns="http://www.w3.org/2000/svg">
<path d="M71.3131 38.632C73.0411 39.928 75.0931 40.576 77.3971 40.576C78.8371 40.576 80.2771 40.288 81.6451 39.712C83.0131 39.136 84.1651 38.236 85.0651 37.048C85.9291 35.86 86.3971 34.384 86.3971 32.656C86.3971 30.568 85.7851 28.912 84.5611 27.616C83.3371 26.32 81.6091 25.276 79.3771 24.484L77.7571 23.944C76.2451 23.476 75.2011 22.972 74.5891 22.468C73.9771 21.964 73.6891 21.316 73.6891 20.596C73.6891 19.876 74.0131 19.3 74.6611 18.832C75.3091 18.364 76.1371 18.112 77.1451 18.112C78.1171 18.112 78.9091 18.4 79.5571 18.904C80.2051 19.408 80.6731 20.128 80.9611 20.992L85.5691 19.048C84.9931 17.464 84.0571 16.096 82.6891 14.98C81.3211 13.864 79.4491 13.288 77.0731 13.288C75.4171 13.288 73.9771 13.612 72.6811 14.26C71.3851 14.908 70.3771 15.808 69.6571 16.96C68.9371 18.112 68.5771 19.336 68.5771 20.704C68.5771 22.576 69.1531 24.088 70.3771 25.312C71.5651 26.536 73.0051 27.436 74.6971 28.012L76.2811 28.588C78.1171 29.272 79.3771 29.92 80.0971 30.496C80.8171 31.072 81.1771 31.828 81.1771 32.728C81.1771 33.628 80.7811 34.348 80.0611 34.852C79.3411 35.356 78.4411 35.608 77.4331 35.608C76.1731 35.608 75.1291 35.212 74.3011 34.42C73.4371 33.628 72.8251 32.512 72.4651 31.036L67.5691 32.98C68.2891 35.464 69.5491 37.336 71.3131 38.632ZM90.3431 21.28V40H95.4191V30.568C95.4191 29.056 95.7431 27.796 96.4271 26.86C97.1111 25.924 98.0111 25.456 99.0911 25.456C100.063 25.456 100.819 25.78 101.359 26.356C101.863 26.932 102.151 27.796 102.151 28.876V40H107.227V30.568C107.227 29.056 107.551 27.796 108.271 26.86C108.955 25.924 109.891 25.456 111.079 25.456C111.979 25.456 112.699 25.78 113.203 26.356C113.707 26.932 113.959 27.796 113.959 28.876V40H118.999V28.012C118.999 25.78 118.423 24.016 117.307 22.684C116.155 21.388 114.535 20.704 112.411 20.704C110.971 20.704 109.711 21.028 108.631 21.64C107.551 22.252 106.759 22.936 106.291 23.728C105.931 23.008 105.283 22.324 104.275 21.676C103.267 21.028 102.115 20.704 100.819 20.704C99.5951 20.704 98.4791 20.992 97.4711 21.496C96.4631 22.036 95.7071 22.72 95.1311 23.584V21.28H90.3431ZM124.184 38.812C125.48 40 127.1 40.576 129.116 40.576C130.304 40.576 131.348 40.36 132.284 39.892C133.22 39.424 133.94 38.848 134.48 38.128H134.516V40H139.52V28.516C139.52 25.996 138.764 24.052 137.252 22.72C135.74 21.388 133.58 20.704 130.736 20.704C129.116 20.704 127.64 21.028 126.272 21.676C124.904 22.324 123.716 23.26 122.744 24.52L126.056 27.112C126.632 26.392 127.28 25.852 128.072 25.456C128.864 25.096 129.656 24.88 130.52 24.88C131.744 24.88 132.716 25.204 133.436 25.78C134.156 26.356 134.516 27.148 134.516 28.084V28.624C133.292 28.12 131.744 27.868 129.836 27.868C128.432 27.868 127.172 28.156 126.02 28.66C124.868 29.164 123.932 29.92 123.284 30.856C122.6 31.828 122.276 32.944 122.276 34.204C122.276 36.112 122.888 37.66 124.184 38.812ZM133.364 35.284C132.572 36.148 131.528 36.544 130.232 36.544C129.296 36.544 128.576 36.328 128.072 35.896C127.568 35.464 127.352 34.924 127.352 34.204C127.352 32.512 128.504 31.648 130.844 31.648C132.14 31.648 133.364 31.936 134.516 32.44C134.516 33.52 134.12 34.456 133.364 35.284ZM165.018 39.856C165.81 40.144 166.674 40.288 167.61 40.288C168.762 40.288 169.914 40.072 171.066 39.604V34.564C170.418 34.996 169.95 35.248 169.662 35.356C169.374 35.464 169.014 35.5 168.582 35.5C167.79 35.5 167.286 35.356 166.998 34.996C166.602 34.636 166.422 33.988 166.422 33.088V25.672H170.922V21.28H166.422V16.096H161.346V21.28H158.142V25.672H161.346V33.952C161.346 36.004 161.922 37.588 163.11 38.704C163.578 39.208 164.226 39.568 165.018 39.856ZM143.886 21.28V40H148.962V30.784C148.962 29.2 149.358 27.94 150.222 27.004C151.05 26.068 152.202 25.6 153.642 25.6C154.506 25.6 155.298 25.744 156.054 26.032V21.064C155.622 20.884 154.974 20.776 154.146 20.776C152.994 20.776 151.878 21.064 150.87 21.604C149.862 22.18 149.106 22.864 148.674 23.728V21.28H143.886Z" fill="#3C91E6"/>
<path d="M175.507 13.864V40H192.211V35.032H180.727V29.416H191.059V24.448H180.727V18.832H192.211V13.864H175.507ZM200.843 30.496L194.363 40H200.375L203.831 34.636L207.359 40H213.407L206.819 30.496L213.407 21.28H207.179L203.903 26.536L200.411 21.28H194.363L200.843 30.496ZM216.023 21.28V47.776H221.099V40.216L220.847 37.804H220.811C221.243 38.596 221.999 39.244 223.007 39.784C224.015 40.324 225.131 40.576 226.427 40.576C228.083 40.576 229.631 40.18 231.035 39.316C232.403 38.488 233.483 37.3 234.275 35.788C235.067 34.276 235.463 32.584 235.463 30.64C235.463 28.768 235.067 27.04 234.275 25.528C233.483 24.016 232.403 22.828 231.035 21.964C229.631 21.136 228.083 20.704 226.427 20.704C225.131 20.704 224.015 20.992 223.007 21.532C221.999 22.108 221.279 22.756 220.811 23.512V21.28H216.023ZM227.975 35.212C227.255 35.644 226.463 35.86 225.599 35.86C224.735 35.86 223.943 35.644 223.223 35.212C222.503 34.78 221.891 34.168 221.459 33.376C221.027 32.584 220.811 31.684 220.811 30.64C220.811 29.632 221.027 28.732 221.459 27.94C221.891 27.148 222.503 26.536 223.223 26.104C223.943 25.672 224.735 25.456 225.599 25.456C226.463 25.456 227.255 25.672 227.975 26.104C228.695 26.536 229.307 27.148 229.739 27.94C230.171 28.732 230.423 29.632 230.423 30.64C230.423 31.684 230.171 32.584 229.739 33.376C229.307 34.168 228.695 34.78 227.975 35.212ZM242.833 39.316C244.345 40.18 246.001 40.576 247.873 40.576C251.761 40.576 254.677 38.884 256.657 35.428L252.517 33.376C252.013 34.24 251.365 34.924 250.645 35.356C249.889 35.824 248.989 36.04 247.945 36.04C246.685 36.04 245.605 35.68 244.741 34.96C243.841 34.24 243.301 33.232 243.085 31.936H256.801C256.873 31.324 256.945 30.748 256.945 30.172C256.945 28.444 256.585 26.824 255.865 25.384C255.145 23.944 254.065 22.792 252.661 21.964C251.257 21.136 249.601 20.704 247.693 20.704C245.893 20.704 244.237 21.172 242.761 22.072C241.285 22.972 240.133 24.196 239.305 25.708C238.477 27.256 238.081 28.912 238.081 30.676C238.081 32.548 238.477 34.24 239.341 35.752C240.169 37.264 241.321 38.452 242.833 39.316ZM252.049 28.228H243.337C243.625 27.292 244.129 26.536 244.921 25.888C245.713 25.24 246.649 24.916 247.729 24.916C248.593 24.916 249.313 25.096 249.961 25.456C250.573 25.816 251.077 26.284 251.437 26.824C251.797 27.364 251.977 27.832 252.049 28.228ZM260.57 21.28V40H265.646V30.46C265.646 29.02 266.006 27.832 266.762 26.896C267.482 25.96 268.49 25.456 269.714 25.456C270.722 25.456 271.514 25.78 272.09 26.392C272.666 27.004 272.954 27.868 272.954 28.984V40H278.03V28.408C278.03 26.032 277.418 24.16 276.23 22.792C275.042 21.424 273.314 20.704 271.082 20.704C269.858 20.704 268.742 20.992 267.698 21.496C266.654 22.036 265.862 22.72 265.358 23.584V21.28H260.57ZM283.987 39.172C285.391 40.108 287.227 40.576 289.531 40.576C290.971 40.576 292.303 40.324 293.527 39.82C294.751 39.316 295.687 38.596 296.407 37.66C297.127 36.724 297.487 35.644 297.487 34.42C297.487 33.016 296.983 31.828 296.047 30.856C295.111 29.884 293.707 29.164 291.835 28.696L289.135 28.048C287.587 27.652 286.831 27.076 286.831 26.284C286.831 25.924 287.047 25.6 287.479 25.312C287.911 25.024 288.523 24.88 289.315 24.88C290.827 24.88 291.943 25.564 292.699 26.86L297.055 24.988C295.687 22.144 293.059 20.704 289.207 20.704C287.839 20.704 286.615 20.956 285.499 21.424C284.383 21.892 283.483 22.54 282.835 23.404C282.187 24.268 281.863 25.276 281.863 26.356C281.863 27.832 282.367 29.056 283.375 30.028C284.383 31.036 285.679 31.684 287.191 32.044L289.351 32.512C290.359 32.764 291.115 33.016 291.619 33.304C292.123 33.592 292.375 33.988 292.375 34.492C292.375 35.068 292.087 35.464 291.583 35.716C291.043 35.968 290.359 36.076 289.531 36.076C288.595 36.076 287.803 35.896 287.155 35.464C286.471 35.032 285.931 34.348 285.535 33.376L280.999 35.356C281.575 36.976 282.583 38.236 283.987 39.172ZM304.814 39.316C306.326 40.18 307.982 40.576 309.854 40.576C313.742 40.576 316.658 38.884 318.638 35.428L314.498 33.376C313.994 34.24 313.346 34.924 312.626 35.356C311.87 35.824 310.97 36.04 309.926 36.04C308.666 36.04 307.586 35.68 306.722 34.96C305.822 34.24 305.282 33.232 305.066 31.936H318.782C318.854 31.324 318.926 30.748 318.926 30.172C318.926 28.444 318.566 26.824 317.846 25.384C317.126 23.944 316.046 22.792 314.642 21.964C313.238 21.136 311.582 20.704 309.674 20.704C307.874 20.704 306.218 21.172 304.742 22.072C303.266 22.972 302.114 24.196 301.286 25.708C300.458 27.256 300.062 28.912 300.062 30.676C300.062 32.548 300.458 34.24 301.322 35.752C302.15 37.264 303.302 38.452 304.814 39.316ZM314.03 28.228H305.318C305.606 27.292 306.11 26.536 306.902 25.888C307.694 25.24 308.63 24.916 309.71 24.916C310.574 24.916 311.294 25.096 311.942 25.456C312.554 25.816 313.058 26.284 313.418 26.824C313.778 27.364 313.958 27.832 314.03 28.228ZM326.47 39.316C327.982 40.18 329.638 40.576 331.51 40.576C335.398 40.576 338.314 38.884 340.294 35.428L336.154 33.376C335.65 34.24 335.002 34.924 334.282 35.356C333.526 35.824 332.626 36.04 331.582 36.04C330.322 36.04 329.242 35.68 328.378 34.96C327.478 34.24 326.938 33.232 326.722 31.936H340.438C340.51 31.324 340.582 30.748 340.582 30.172C340.582 28.444 340.222 26.824 339.502 25.384C338.782 23.944 337.702 22.792 336.298 21.964C334.894 21.136 333.238 20.704 331.33 20.704C329.53 20.704 327.874 21.172 326.398 22.072C324.922 22.972 323.77 24.196 322.942 25.708C322.114 27.256 321.718 28.912 321.718 30.676C321.718 32.548 322.114 34.24 322.978 35.752C323.806 37.264 324.958 38.452 326.47 39.316ZM335.686 28.228H326.974C327.262 27.292 327.766 26.536 328.558 25.888C329.35 25.24 330.286 24.916 331.366 24.916C332.23 24.916 332.95 25.096 333.598 25.456C334.21 25.816 334.714 26.284 335.074 26.824C335.434 27.364 335.614 27.832 335.686 28.228Z" fill="black"/>
<g clip-path="url(#clip0_7_24)">
<mask id="mask0_7_24" style="mask-type:alpha" maskUnits="userSpaceOnUse" x="0" y="0" width="52" height="51">
<path d="M40.4031 0H11.5031C5.40038 0 0.453125 4.94725 0.453125 11.05V39.95C0.453125 46.0527 5.40038 51 11.5031 51H40.4031C46.5059 51 51.4531 46.0527 51.4531 39.95V11.05C51.4531 4.94725 46.5059 0 40.4031 0Z" fill="white"/>
</mask>
<g mask="url(#mask0_7_24)">
<mask id="mask1_7_24" style="mask-type:alpha" maskUnits="userSpaceOnUse" x="0" y="0" width="52" height="51">
<path d="M51.4531 0H0.453125V51H51.4531V0Z" fill="white"/>
</mask>
<g mask="url(#mask1_7_24)">
<path d="M51.4531 0H0.453125V51H51.4531V0Z" fill="url(#paint0_linear_7_24)"/>
<g opacity="0.309733">
<mask id="mask2_7_24" style="mask-type:alpha" maskUnits="userSpaceOnUse" x="-4" y="-3" width="40" height="44">
<path d="M9.03379 -2.42212C1.94692 -2.42212 -3.79688 3.32167 -3.79688 10.4085V40.5214C0.985055 18.1269 42.0977 22.4934 34.7841 3.14865C33.9747 1.00891 30.8291 -1.5932 27.1351 -2.42212H9.03379Z" fill="white"/>
</mask>
<g mask="url(#mask2_7_24)">
<path fill-rule="evenodd" clip-rule="evenodd" d="M9.03379 -2.42212C1.94692 -2.42212 -3.79688 3.32167 -3.79688 10.4085V40.5214C0.985055 18.1269 42.0977 22.4934 34.7841 3.14865C33.9747 1.00891 30.8291 -1.5932 27.1351 -2.42212H9.03379Z" fill="url(#paint1_linear_7_24)"/>
</g>
<mask id="mask3_7_24" style="mask-type:alpha" maskUnits="userSpaceOnUse" x="13" y="11" width="41" height="44">
<path d="M14.6182 49.0022C15.4286 51.1429 18.5742 53.745 22.2672 54.5739H40.3685C47.4544 54.5739 53.1992 48.8291 53.1992 41.7432V11.6284C48.4163 34.0239 7.30359 29.6584 14.6182 49.0022Z" fill="white"/>
</mask>
<g mask="url(#mask3_7_24)">
<path fill-rule="evenodd" clip-rule="evenodd" d="M14.6182 49.0022C15.4286 51.1429 18.5742 53.745 22.2672 54.5739H40.3685C47.4544 54.5739 53.1992 48.8291 53.1992 41.7432V11.6284C48.4163 34.0239 7.30359 29.6584 14.6182 49.0022Z" fill="url(#paint2_linear_7_24)"/>
</g>
</g>
<path fill-rule="evenodd" clip-rule="evenodd" d="M30.8777 40.2427C30.8777 40.2427 34.2626 40.7183 35.1018 39.7671C35.4096 38.5643 35.4374 38.0049 35.4374 38.0049L30.8777 40.2427Z" fill="#F992B0"/>
<path fill-rule="evenodd" clip-rule="evenodd" d="M15.6151 37.307C8.84475 33.7163 6.24295 25.239 9.83356 18.4687C13.424 11.6981 21.9013 9.09633 28.6718 12.6869L33.0861 15.0279C39.8565 18.6185 42.4583 27.0956 38.8677 33.8662C35.277 40.6367 26.7999 43.2385 20.0294 39.6479L15.6151 37.307Z" fill="#FBB6CB"/>
<path fill-rule="evenodd" clip-rule="evenodd" d="M28.5035 30.2849C28.5804 29.8425 28.7894 29.4237 29.256 29.1383C29.6482 28.8983 30.0328 28.8591 30.4585 28.9344C30.8133 28.9972 31.3511 29.5068 31.4262 29.8865C31.4587 30.0512 31.4066 30.1913 31.2831 30.29C31.1556 30.3919 31.0109 30.4365 30.8599 30.347C30.8018 30.3126 30.7512 30.2611 30.7026 30.2113C30.2173 29.7149 29.6119 29.8358 29.3224 30.4917C29.2598 30.6334 29.1978 30.7698 29.0472 30.8241C28.7353 30.9366 28.4935 30.737 28.5035 30.2849Z" fill="#312957"/>
<path fill-rule="evenodd" clip-rule="evenodd" d="M39.9684 26.7366C39.9684 27.4936 39.4675 28.1072 38.8495 28.1072C38.2315 28.1072 37.7306 27.4936 37.7306 26.7366C37.7306 25.9795 38.2315 25.366 38.8495 25.366C39.4675 25.366 39.9684 25.9795 39.9684 26.7366Z" fill="#312957"/>
<path fill-rule="evenodd" clip-rule="evenodd" d="M39.5907 26.3136C39.5907 26.6245 39.3653 26.8766 39.087 26.8766C38.809 26.8766 38.5836 26.6245 38.5836 26.3136C38.5836 26.0027 38.809 25.7507 39.087 25.7507C39.3653 25.7507 39.5907 26.0027 39.5907 26.3136Z" fill="white"/>
<path fill-rule="evenodd" clip-rule="evenodd" d="M39.9554 29.5763C39.9819 29.577 40.0083 29.5774 40.0344 29.5787C40.1216 29.5831 40.2078 29.5901 40.2916 29.6024C40.2922 29.6024 40.2927 29.6024 40.2933 29.6024C40.3776 29.6147 40.4597 29.6321 40.5403 29.6521C40.5686 29.6589 40.5959 29.6669 40.6233 29.6748C40.6653 29.6869 40.7067 29.6996 40.7475 29.7136C40.7763 29.7236 40.8048 29.7344 40.833 29.7455C40.8725 29.7612 40.9113 29.7777 40.9495 29.7956C40.9913 29.8149 41.0334 29.8335 41.0737 29.8554L41.0733 29.8552C41.0733 29.8552 41.0735 29.8554 41.0737 29.8554L39.9038 29.2191C39.8784 29.2053 39.8527 29.192 39.8268 29.1792C39.8115 29.1718 39.7952 29.1663 39.7797 29.1591C39.7415 29.1414 39.7026 29.1247 39.6632 29.1092C39.6349 29.0981 39.6065 29.0873 39.5778 29.0773C39.5371 29.0631 39.4955 29.0504 39.4535 29.0385C39.4348 29.0332 39.417 29.0262 39.3983 29.0211C39.3892 29.019 39.3796 29.0179 39.3707 29.0156C39.2898 28.9956 39.2079 28.9784 39.1235 28.9661C39.123 28.9661 39.1224 28.9661 39.122 28.9659C39.0379 28.9538 38.9518 28.9468 38.8643 28.9424C38.8384 28.9409 38.8121 28.9407 38.7858 28.9398C38.7202 28.9383 38.654 28.9388 38.5869 28.9413C38.56 28.9424 38.5332 28.943 38.5063 28.9445C38.415 28.9502 38.3227 28.9583 38.2291 28.9714C38.1332 28.985 38.0357 29.0039 37.9377 29.0251C37.9184 29.0294 37.8993 29.0334 37.88 29.0379C37.7847 29.0599 37.689 29.0854 37.5924 29.1149C37.5743 29.1204 37.5563 29.1264 37.5385 29.1321C37.4447 29.1618 37.3509 29.1945 37.2562 29.231C37.2477 29.2342 37.2394 29.237 37.2307 29.2403C37.1316 29.2792 37.0319 29.3229 36.9321 29.369C36.9211 29.3743 36.9098 29.3781 36.8986 29.3834C36.8842 29.3904 36.8699 29.398 36.8557 29.4048C36.8158 29.4241 36.7761 29.4439 36.7364 29.4643C36.7046 29.4806 36.6728 29.4967 36.6407 29.5139C36.6008 29.5354 36.5607 29.5576 36.5206 29.5801C36.4892 29.598 36.4576 29.6156 36.4261 29.6338C36.3856 29.6578 36.3451 29.6826 36.3045 29.7077C36.2738 29.7266 36.243 29.7453 36.2122 29.765C36.1706 29.7917 36.1294 29.8195 36.0878 29.8473C36.0641 29.8637 36.0399 29.8785 36.0159 29.8951C36.0121 29.8979 36.0083 29.901 36.0044 29.9036C35.8973 29.9783 35.7909 30.0577 35.6852 30.1402C35.6672 30.1544 35.6491 30.1685 35.6311 30.1829C35.5275 30.2654 35.425 30.352 35.3236 30.4427C35.3155 30.4499 35.3072 30.4562 35.2992 30.4635C35.2879 30.4734 35.2773 30.4847 35.2661 30.4949C35.1729 30.5798 35.0804 30.6668 34.9895 30.758C34.8872 30.861 34.7894 30.9662 34.6943 31.073C34.6877 31.0806 34.6801 31.0879 34.6733 31.0955C34.6699 31.0993 34.6669 31.1034 34.6635 31.1072C34.5793 31.2031 34.4986 31.3005 34.4203 31.3988C34.4057 31.417 34.3912 31.4353 34.3768 31.4538C34.3006 31.5512 34.2272 31.6499 34.1569 31.7492C34.1525 31.7558 34.1472 31.7617 34.1427 31.7683C34.1357 31.7783 34.1298 31.7885 34.1227 31.7984C34.0483 31.906 33.9763 32.0143 33.9086 32.1236C33.9033 32.1323 33.8984 32.141 33.8931 32.1497C33.8256 32.2596 33.7617 32.3704 33.7015 32.4814C33.6985 32.4871 33.6947 32.4929 33.6917 32.4986C33.6906 32.5005 33.6898 32.5026 33.6887 32.5045C33.6166 32.6391 33.5499 32.7741 33.4886 32.9095C33.4869 32.9131 33.485 32.9169 33.4833 32.9207C33.4209 33.0591 33.3642 33.1975 33.3135 33.3354C33.3133 33.3361 33.3131 33.3367 33.3129 33.3373L33.3124 33.3382C33.2846 33.4138 33.2592 33.4891 33.235 33.5644C33.2273 33.5882 33.2205 33.6118 33.2131 33.6355C33.1972 33.6873 33.1819 33.7389 33.1677 33.7903C33.16 33.8181 33.1528 33.8461 33.1456 33.8739C33.1333 33.9216 33.1216 33.969 33.1108 34.0163C33.1044 34.0445 33.0981 34.0727 33.0921 34.1008C33.0819 34.1494 33.0726 34.1975 33.0641 34.2457C33.0594 34.2714 33.0546 34.2971 33.0503 34.3226C33.041 34.3803 33.0329 34.4376 33.0259 34.4947C33.024 34.5097 33.0215 34.5252 33.0198 34.5403C33.0117 34.612 33.0055 34.6831 33.0011 34.7538C32.9998 34.7729 32.9996 34.7918 32.9987 34.8111C32.9962 34.8623 32.9943 34.9132 32.9938 34.9637C32.9937 34.989 32.9941 35.0138 32.9945 35.0388C32.9949 35.0832 32.996 35.1273 32.9981 35.1711C32.9994 35.197 33.0009 35.2226 33.0028 35.2481C33.0057 35.2914 33.0098 35.3341 33.0145 35.3765C33.0172 35.4007 33.0195 35.4249 33.0227 35.4489C33.0289 35.4958 33.0365 35.5418 33.0448 35.5877C33.0482 35.6059 33.0507 35.6244 33.0544 35.6424C33.0669 35.7057 33.0811 35.7679 33.0976 35.8288C33.101 35.8407 33.1051 35.8519 33.1083 35.8638C33.1223 35.9128 33.1373 35.9612 33.1539 36.0088C33.1611 36.0291 33.169 36.0491 33.1766 36.069C33.191 36.1075 33.2063 36.1454 33.2224 36.1826C33.2318 36.204 33.2418 36.225 33.2517 36.246C33.2683 36.2815 33.2861 36.3163 33.3046 36.3507C33.3152 36.3708 33.326 36.3908 33.3375 36.4107C33.3583 36.4466 33.3803 36.4816 33.4028 36.5162C33.4137 36.5326 33.4236 36.5493 33.4347 36.5655C33.4693 36.6151 33.5056 36.6639 33.5442 36.7106C33.7148 36.9161 33.916 37.0793 34.1416 37.202L35.3115 37.8385C35.0859 37.7158 34.8845 37.5524 34.714 37.3469C34.6754 37.3002 34.6391 37.2516 34.6047 37.2017C34.5935 37.1858 34.5833 37.1688 34.5727 37.1527C34.55 37.1179 34.5279 37.0831 34.5073 37.047C34.4959 37.0273 34.485 37.0071 34.4742 36.987C34.4557 36.9526 34.4381 36.9178 34.4214 36.8825C34.4114 36.8615 34.4016 36.8403 34.3923 36.8189C34.3759 36.7817 34.3609 36.7437 34.3464 36.7053C34.3388 36.6854 34.331 36.6656 34.3237 36.6453C34.3072 36.5977 34.2921 36.5491 34.2781 36.5001C34.2747 36.4882 34.2707 36.477 34.2675 36.4651C34.2512 36.4042 34.2367 36.342 34.2242 36.2789C34.2206 36.2609 34.2178 36.2422 34.2146 36.224C34.2064 36.1781 34.1987 36.1321 34.1926 36.0852C34.1894 36.0614 34.1868 36.037 34.1843 36.0128C34.1796 35.9704 34.1756 35.9279 34.1724 35.8848C34.1707 35.8591 34.1692 35.8332 34.168 35.8071C34.1658 35.7636 34.1648 35.7195 34.1641 35.6753C34.1639 35.6503 34.1633 35.6253 34.1637 35.6002C34.1641 35.5497 34.166 35.4986 34.1684 35.4474C34.1694 35.4283 34.1697 35.4092 34.1709 35.3901C34.1754 35.3196 34.1813 35.2483 34.1896 35.1766C34.1913 35.1613 34.1938 35.146 34.1958 35.1307C34.203 35.0739 34.2108 35.0166 34.2202 34.959C34.2244 34.9334 34.2293 34.9073 34.234 34.8814C34.2427 34.8336 34.2516 34.7856 34.2618 34.7375C34.2679 34.7092 34.2741 34.6808 34.2807 34.6524C34.2915 34.6052 34.3031 34.5579 34.3155 34.5104C34.3227 34.4824 34.3299 34.4546 34.3375 34.4265C34.3515 34.3754 34.3668 34.324 34.3827 34.2727C34.3902 34.2485 34.3972 34.2245 34.4048 34.2005C34.429 34.1254 34.4547 34.05 34.4823 33.9747C34.4825 33.9736 34.4829 33.9728 34.4833 33.9717C34.5341 33.8338 34.5907 33.6954 34.6531 33.557C34.6548 33.5534 34.6567 33.5496 34.6584 33.5458C34.7198 33.4106 34.7864 33.2754 34.8586 33.141C34.8626 33.1332 34.8671 33.1255 34.8713 33.1179C34.9316 33.0067 34.9955 32.8959 35.063 32.786C35.0683 32.7773 35.0731 32.7686 35.0784 32.7599C35.1461 32.6506 35.2181 32.5423 35.2928 32.4347C35.3041 32.4184 35.3151 32.402 35.3266 32.3857C35.3968 32.2861 35.4704 32.1877 35.5466 32.09C35.5609 32.0716 35.5755 32.0533 35.5901 32.0351C35.6683 31.9368 35.7491 31.8394 35.8334 31.7437C35.8433 31.7322 35.854 31.7207 35.8644 31.7093C35.9592 31.6027 36.0571 31.4973 36.1594 31.3945C36.2502 31.3031 36.3427 31.2161 36.4359 31.1312C36.455 31.1138 36.4741 31.0961 36.4934 31.0789C36.5949 30.9885 36.6972 30.9019 36.8007 30.8192C36.8188 30.8049 36.837 30.7907 36.8553 30.7765C36.961 30.6937 37.0673 30.6144 37.1745 30.5399C37.2019 30.5208 37.2295 30.5027 37.257 30.4843C37.2986 30.4562 37.3402 30.4282 37.3821 30.4013C37.4128 30.3818 37.4436 30.3633 37.4742 30.3442C37.5147 30.3191 37.5555 30.2941 37.5962 30.2703C37.6274 30.2519 37.6588 30.2345 37.69 30.2168C37.7303 30.1941 37.7704 30.1716 37.8108 30.1502C37.8424 30.1332 37.8742 30.1169 37.9061 30.1008C37.946 30.0804 37.9857 30.0604 38.0253 30.0413C38.0508 30.029 38.0765 30.0171 38.102 30.0052C38.2017 29.9592 38.3015 29.9157 38.4006 29.8768C38.4091 29.8732 38.4176 29.8705 38.426 29.8673C38.5205 29.8308 38.6145 29.7983 38.7083 29.7686C38.7261 29.7629 38.7442 29.7567 38.762 29.7512C38.8588 29.7219 38.9545 29.6962 39.0496 29.6742C39.0689 29.6697 39.0882 29.6657 39.1073 29.6614C39.2054 29.6402 39.3028 29.6213 39.3989 29.6079C39.4925 29.5948 39.5846 29.5865 39.6759 29.581C39.7031 29.5793 39.7298 29.5787 39.7568 29.5776C39.8236 29.575 39.8898 29.5746 39.9554 29.5763Z" fill="#FAA7BC"/>
<path fill-rule="evenodd" clip-rule="evenodd" d="M39.3989 29.608C40.3222 29.4782 41.1446 29.7123 41.6709 30.3473C42.7947 31.7026 42.1487 34.367 40.2271 36.2996C39.2067 37.3258 38.0321 37.9394 36.9867 38.0862C36.0634 38.2161 35.2412 37.982 34.714 37.347C33.5915 35.9917 34.2378 33.3273 36.1594 31.3946C37.1792 30.3685 38.3537 29.7549 39.3989 29.608Z" fill="#FBC9DA"/>
<path fill-rule="evenodd" clip-rule="evenodd" d="M35.8658 34.4097C35.3874 34.9737 35.2847 35.673 35.6366 35.9716C35.9885 36.2702 36.6617 36.055 37.1403 35.4911C37.6189 34.9272 37.7216 34.2279 37.3695 33.9292C37.0176 33.6306 36.3444 33.8456 35.8658 34.4097Z" fill="#E76B8C"/>
<path fill-rule="evenodd" clip-rule="evenodd" d="M39.3976 32.3606C38.919 32.9245 38.8165 33.6239 39.1684 33.9225C39.5203 34.2211 40.1935 34.0059 40.6721 33.442C41.1507 32.8781 41.2532 32.1787 40.9013 31.8801C40.5494 31.5815 39.876 31.7967 39.3976 32.3606Z" fill="#E76B8C"/>
<path fill-rule="evenodd" clip-rule="evenodd" d="M13.3993 17.8847C13.04 18.5067 12.4398 18.8327 12.0584 18.6126C11.677 18.3923 11.6592 17.7096 12.0185 17.0875C12.3776 16.4652 12.9778 16.1394 13.3592 16.3595C13.7406 16.5796 13.7584 17.2624 13.3993 17.8847Z" fill="#FFDDE7"/>
<path fill-rule="evenodd" clip-rule="evenodd" d="M11.8022 19.9675C11.608 20.3036 11.2835 20.48 11.0774 20.3609C10.8711 20.2419 10.8615 19.8728 11.0557 19.5364C11.2499 19.2 11.5744 19.0239 11.7805 19.1429C11.9866 19.262 11.9964 19.6311 11.8022 19.9675Z" fill="#FFDDE7"/>
<path fill-rule="evenodd" clip-rule="evenodd" d="M22.6214 25.7523C22.5104 26.0505 22.3073 26.2905 22.0539 26.4493C21.7621 26.6322 21.4036 26.7071 21.0432 26.6384C19.4264 26.3302 16.6684 25.0214 19.3806 19.5143C20.4154 17.5562 22.4017 14.507 24.1081 16.0177C25.8705 17.5562 27.4368 18.8429 27.6607 19.2906C27.8844 19.7382 26.7655 19.906 25.9544 20.5213C25.1432 21.1368 23.7446 22.4236 22.8774 24.9411C22.7889 25.2669 22.7027 25.5337 22.6214 25.7523Z" fill="#FDC8DA"/>
<path fill-rule="evenodd" clip-rule="evenodd" d="M23.8004 15.9895C23.8004 15.9895 22.1218 16.0175 21.2827 20.2414C20.807 23.0109 21.4264 26.6144 22.0539 26.4491C22.5136 26.1719 22.7934 25.7521 23.3248 23.9619C23.6325 22.759 25.5068 20.3813 27.6328 19.6539C28.3881 19.2344 24.0802 15.9334 23.8004 15.9895Z" fill="#F992B0"/>
<path fill-rule="evenodd" clip-rule="evenodd" d="M33.2835 17.556C33.2835 17.556 30.8217 18.0597 31.8288 15.5979C32.3882 14.367 37.2837 11.1221 40.3609 13.1642C41.144 13.8355 38.9901 20.2695 38.9901 20.2695C38.9901 20.2695 38.4866 16.0455 33.2835 17.556Z" fill="#FDC8DA"/>
<path fill-rule="evenodd" clip-rule="evenodd" d="M33.759 16.9406C33.759 16.9406 35.2414 15.9055 36.8082 14.4788C38.3747 13.0522 40.0811 12.9403 40.5007 13.416C40.7804 13.9472 39.7173 19.3743 38.7663 20.8289C38.123 19.682 37.1437 17.3321 33.0036 17.5558C32.3043 17.5838 33.759 16.9406 33.759 16.9406Z" fill="#F992B0"/>
<path fill-rule="evenodd" clip-rule="evenodd" d="M19.8001 12.0452C19.8001 12.0452 18.8491 12.3809 19.9119 12.6326C21.3386 12.8005 25.1709 14.4228 27.6887 16.2971C28.444 16.8566 29.2832 16.521 28.7796 15.6816C27.6046 14.4789 25.1151 12.185 19.8001 12.0452Z" fill="#D65678"/>
<path fill-rule="evenodd" clip-rule="evenodd" d="M28.6399 16.4652C28.6399 16.4652 27.6048 14.1434 22.4016 12.2971C23.6046 12.521 26.4579 13.1083 28.7797 15.6819C29.0314 16.1295 29.0875 16.3254 28.6399 16.4652Z" fill="#FF92B3"/>
<path fill-rule="evenodd" clip-rule="evenodd" d="M9.67358 30.5078L10.5688 37.6691C10.5688 37.6691 12.9745 39.5153 15.7159 37.6971V36.1026L9.67358 30.5078Z" fill="#FBB6CB"/>
<path fill-rule="evenodd" clip-rule="evenodd" d="M21.059 39.8511L22.01 44.2709C22.01 44.2709 24.5558 46.0893 27.0733 44.2989C27.6047 42.1169 27.9965 40.4666 27.9965 40.4666L21.059 39.8511Z" fill="#FBB6CB"/>
<path fill-rule="evenodd" clip-rule="evenodd" d="M23.3301 10.516C23.3299 10.5088 23.3293 10.5016 23.3291 10.4941C23.3287 10.4793 23.3276 10.464 23.327 10.4489C23.3261 10.4307 23.3257 10.4128 23.3244 10.3946C23.3236 10.3808 23.3221 10.3666 23.3212 10.3528C23.3199 10.3367 23.3187 10.3207 23.3172 10.3044C23.3163 10.2938 23.3157 10.2832 23.3146 10.2726C23.3125 10.2492 23.3095 10.2259 23.307 10.2025C23.3055 10.1894 23.304 10.1762 23.3025 10.1628C23.3019 10.1584 23.3017 10.1539 23.3011 10.1495C23.2958 10.1077 23.2898 10.0656 23.283 10.0234C23.283 10.0225 23.2828 10.0215 23.2826 10.0206C23.2815 10.0145 23.2805 10.0083 23.2794 10.0022C23.2737 9.96715 23.2677 9.93192 23.2612 9.89669C23.2599 9.89011 23.2584 9.88375 23.2573 9.87738C23.2542 9.86061 23.2505 9.84406 23.2472 9.82729C23.2429 9.8067 23.2391 9.78633 23.2346 9.76574C23.2321 9.75407 23.2291 9.74261 23.2266 9.73115C23.2223 9.7129 23.2181 9.69464 23.2138 9.67639C23.2104 9.66238 23.2075 9.64816 23.2039 9.63416C23.1996 9.61718 23.1949 9.59999 23.1905 9.58301C23.1858 9.56475 23.1809 9.54629 23.1761 9.52804C23.1735 9.51891 23.1714 9.51 23.1688 9.50087C23.162 9.47668 23.1548 9.45248 23.1478 9.42829C23.1432 9.41258 23.1387 9.39709 23.134 9.38138C23.1325 9.37693 23.1315 9.37268 23.1302 9.36822C23.1168 9.32493 23.103 9.28163 23.0886 9.23834L23.088 9.23664C23.0867 9.23282 23.0852 9.229 23.0839 9.22518C23.071 9.18697 23.0578 9.14856 23.0438 9.11036C23.0417 9.10442 23.0392 9.09826 23.037 9.09211C23.0319 9.07789 23.0264 9.06367 23.0209 9.04945C23.0133 9.02865 23.0058 9.00806 22.9978 8.98747C22.9927 8.97431 22.9872 8.96116 22.9819 8.948C22.9755 8.93208 22.9691 8.91616 22.9628 8.90046C22.9581 8.88878 22.9536 8.87711 22.9487 8.86544C22.939 8.84209 22.9288 8.81896 22.9188 8.79561C22.9135 8.78351 22.9084 8.7712 22.9031 8.75911C22.9012 8.75465 22.8993 8.75019 22.8974 8.74574C22.8793 8.7052 22.8611 8.66487 22.8422 8.62455C22.8414 8.62285 22.8403 8.62094 22.8394 8.61924C22.8344 8.608 22.8286 8.59696 22.8233 8.58571C22.8085 8.5543 22.7936 8.5231 22.7779 8.4919C22.7756 8.48723 22.773 8.48235 22.7705 8.47747C22.7579 8.45221 22.7446 8.42717 22.7316 8.40213C22.721 8.38196 22.711 8.36138 22.7002 8.34121C22.6981 8.33761 22.696 8.334 22.6941 8.33018C22.659 8.26523 22.6228 8.20093 22.5856 8.13704C22.5824 8.13153 22.5795 8.12601 22.5763 8.12049C22.5727 8.11455 22.5686 8.1086 22.565 8.10245C22.512 8.01289 22.4566 7.92459 22.3991 7.838C22.3961 7.83333 22.3933 7.82845 22.3901 7.82378C22.3848 7.81593 22.3791 7.8085 22.3738 7.80065C22.3273 7.73188 22.2802 7.66376 22.2312 7.59754V7.59733C22.2305 7.59648 22.2297 7.59563 22.2293 7.59478C22.1947 7.5483 22.1599 7.50225 22.1242 7.45704C22.1227 7.45492 22.1212 7.45279 22.1195 7.45088C22.093 7.41693 22.0658 7.38382 22.0387 7.35092C22.0338 7.34477 22.0289 7.33861 22.0238 7.33246C22.0234 7.33203 22.023 7.33161 22.0228 7.33118C21.9907 7.29277 21.9585 7.25478 21.9256 7.21764C21.9241 7.21573 21.9224 7.21403 21.9207 7.21212C21.9109 7.20087 21.9007 7.18983 21.8905 7.1788C21.8697 7.15545 21.8492 7.13211 21.8279 7.10918C21.8239 7.10494 21.8199 7.10091 21.8158 7.09666C21.8018 7.08138 21.7874 7.06674 21.773 7.05167C21.757 7.03511 21.7413 7.01792 21.7252 7.00158C21.7193 6.99564 21.7133 6.98991 21.7074 6.98397C21.6917 6.96805 21.6758 6.95255 21.6598 6.93706C21.6463 6.92369 21.6329 6.91011 21.6193 6.89695C21.6117 6.88952 21.6036 6.88252 21.596 6.87509C21.579 6.85917 21.5618 6.84325 21.5448 6.82755C21.5327 6.81651 21.521 6.80505 21.5089 6.79423C21.4996 6.78595 21.4901 6.77788 21.4807 6.76961C21.4635 6.75433 21.4463 6.73926 21.4289 6.7244C21.4183 6.71527 21.4079 6.70594 21.3973 6.69681C21.3861 6.68726 21.3744 6.67835 21.3629 6.66879C21.3459 6.65479 21.3292 6.64099 21.3122 6.62741C21.3033 6.62019 21.2946 6.61276 21.2857 6.60576C21.2712 6.5943 21.2566 6.58369 21.2422 6.57265C21.2265 6.56055 21.2107 6.54824 21.1948 6.53636C21.1885 6.53169 21.1819 6.52638 21.1755 6.52171C21.1562 6.5075 21.1365 6.49391 21.1169 6.48012C21.1036 6.47057 21.0902 6.4608 21.0766 6.45146C21.0732 6.44913 21.0698 6.44637 21.0662 6.44404C21.031 6.41984 20.9955 6.39628 20.9599 6.37357C20.9595 6.37336 20.9592 6.37336 20.9588 6.37315C20.9561 6.37145 20.9533 6.36975 20.9508 6.36806C20.9185 6.34768 20.886 6.32773 20.8536 6.30863C20.8453 6.30375 20.837 6.29887 20.8289 6.2942C20.8022 6.2787 20.7755 6.26385 20.7491 6.24963C20.7389 6.24411 20.729 6.23923 20.719 6.23392C20.7052 6.22671 20.6914 6.2197 20.6778 6.2127C20.6674 6.20718 20.6566 6.20145 20.6462 6.19636C20.6292 6.18787 20.6127 6.18044 20.5959 6.17259C20.5838 6.16686 20.5715 6.16091 20.5594 6.1554C20.5545 6.15306 20.5494 6.15051 20.5445 6.14839C20.5108 6.13332 20.4775 6.1191 20.4442 6.10573C20.4437 6.10573 20.4433 6.10552 20.4429 6.10531C20.4093 6.09194 20.376 6.07942 20.3429 6.06774C20.3385 6.06604 20.3342 6.06498 20.3298 6.0635C20.3177 6.05925 20.3056 6.05543 20.2935 6.05161C20.2763 6.04588 20.2593 6.03994 20.2423 6.03485C20.2338 6.0323 20.2255 6.03039 20.2171 6.02784C20.2022 6.0236 20.1873 6.01956 20.1727 6.01553C20.1612 6.01256 20.1498 6.00895 20.1385 6.00619C20.1266 6.00322 20.115 6.0011 20.1029 5.99834C20.0884 5.99495 20.0736 5.99155 20.0589 5.98858C20.0513 5.98688 20.0434 5.98476 20.0356 5.98327C20.0218 5.98051 20.0082 5.97882 19.9944 5.97648C19.9774 5.97351 19.9605 5.97054 19.9435 5.9682C19.9378 5.96735 19.9316 5.96608 19.9257 5.96523C19.9117 5.96332 19.8981 5.96247 19.8841 5.96099C19.866 5.95887 19.8478 5.95674 19.8299 5.95547C19.8246 5.95504 19.8193 5.9542 19.814 5.95377C19.8017 5.95292 19.7898 5.95313 19.7777 5.95271C19.7565 5.95165 19.7351 5.95059 19.7138 5.95059C19.7081 5.95038 19.702 5.94995 19.696 5.94995C19.6867 5.94995 19.678 5.95101 19.6689 5.95122C19.6421 5.95186 19.6158 5.95292 19.5897 5.95504C19.5818 5.95547 19.5736 5.95526 19.5659 5.95611C19.56 5.95653 19.5545 5.95802 19.5487 5.95865C19.5088 5.96269 19.4696 5.9682 19.4311 5.97563C19.4278 5.97627 19.4244 5.97648 19.4212 5.97712C19.4203 5.97733 19.4193 5.97754 19.4184 5.97775C19.4106 5.97924 19.4029 5.98157 19.3951 5.98327C19.3711 5.98858 19.3473 5.9941 19.324 6.00068C19.3125 6.00386 19.3017 6.00789 19.2904 6.01129C19.2756 6.01596 19.2603 6.0202 19.2457 6.02529C19.2418 6.02657 19.2384 6.02848 19.2348 6.02975C19.2121 6.03803 19.19 6.04737 19.1682 6.05692C19.1576 6.06159 19.1468 6.06562 19.1361 6.0705C19.1041 6.08557 19.0727 6.1017 19.0423 6.11932L18.4266 6.47715C18.4572 6.45953 18.4886 6.4434 18.5204 6.42833C18.5311 6.42345 18.5419 6.4192 18.5527 6.41475C18.5746 6.4052 18.5964 6.39586 18.6189 6.38758C18.6374 6.381 18.6561 6.37506 18.6747 6.36912C18.686 6.36551 18.6968 6.36169 18.7083 6.35851C18.7316 6.35193 18.7554 6.34641 18.7794 6.3411C18.7872 6.3394 18.7949 6.33707 18.8027 6.33537C18.807 6.33474 18.8112 6.33431 18.8155 6.33346C18.8539 6.32603 18.8931 6.32052 18.933 6.31627C18.9466 6.315 18.9604 6.31372 18.974 6.31266C19.0001 6.31075 19.0264 6.30948 19.0532 6.30905C19.068 6.30863 19.0831 6.30821 19.0982 6.30821C19.1194 6.30842 19.1406 6.30927 19.162 6.31033C19.1794 6.31118 19.1966 6.31181 19.2142 6.3133C19.2321 6.31457 19.2503 6.3167 19.2684 6.31882C19.2881 6.32094 19.3078 6.32306 19.328 6.32603C19.3448 6.32837 19.3617 6.33134 19.3787 6.33431C19.4002 6.33792 19.4216 6.34174 19.4435 6.34641C19.4579 6.34938 19.4725 6.35278 19.4874 6.35617C19.5103 6.36148 19.5337 6.36721 19.557 6.37336C19.5719 6.37739 19.5865 6.38143 19.6014 6.38567C19.6266 6.39289 19.6521 6.40095 19.6778 6.40923C19.6899 6.41326 19.702 6.41708 19.7141 6.42112C19.7516 6.43406 19.7892 6.44786 19.8274 6.46314C19.8278 6.46335 19.828 6.46356 19.8285 6.46356C19.8667 6.47884 19.9051 6.49561 19.9437 6.51323C19.9558 6.51874 19.9679 6.52469 19.98 6.5302C20.0074 6.54315 20.0347 6.55652 20.0623 6.57053C20.0759 6.57753 20.0895 6.58454 20.1031 6.59175C20.1398 6.61107 20.1763 6.6308 20.213 6.65203C20.254 6.67559 20.2945 6.70042 20.3351 6.72589C20.3376 6.72758 20.3406 6.72907 20.3431 6.73098C20.3828 6.75602 20.4219 6.78234 20.4609 6.80929C20.4745 6.81863 20.4879 6.8284 20.5012 6.83795C20.5273 6.85641 20.5535 6.87488 20.5791 6.89419C20.5951 6.90607 20.6108 6.91838 20.6267 6.93048C20.65 6.94831 20.6732 6.96656 20.6965 6.98503C20.7135 6.99861 20.7302 7.01262 20.7472 7.02662C20.7695 7.04488 20.7914 7.06334 20.8132 7.08223C20.8306 7.09709 20.8478 7.11216 20.865 7.12744C20.8865 7.14633 20.9077 7.16564 20.9289 7.18516C20.9461 7.20108 20.9633 7.217 20.9803 7.23292C21.0017 7.25329 21.0229 7.27409 21.0441 7.29489C21.0601 7.31038 21.076 7.32588 21.0917 7.34179C21.1138 7.36387 21.1354 7.38658 21.1571 7.40929C21.1715 7.42435 21.1859 7.43921 21.2003 7.45449C21.2254 7.48145 21.2502 7.50882 21.2748 7.53642C21.2848 7.54766 21.2952 7.55849 21.305 7.56995C21.34 7.60942 21.3742 7.64954 21.4081 7.69029C21.4132 7.69623 21.4179 7.7026 21.423 7.70854C21.4518 7.74356 21.4805 7.779 21.5085 7.81487C21.5442 7.86008 21.5792 7.90592 21.6136 7.95261C21.6142 7.95346 21.6148 7.95431 21.6155 7.95516C21.6645 8.02159 21.7118 8.08971 21.7581 8.15827C21.7666 8.17079 21.7751 8.18331 21.7834 8.19604C21.8409 8.28243 21.8963 8.37072 21.9493 8.46028C21.9561 8.47174 21.9631 8.4832 21.9699 8.49487C22.0073 8.55854 22.0436 8.62306 22.0784 8.68822C22.0911 8.71199 22.1034 8.73576 22.1157 8.75974C22.1289 8.785 22.142 8.81004 22.1548 8.8353C22.1726 8.87096 22.19 8.90661 22.2072 8.94248C22.2127 8.95415 22.2184 8.96561 22.224 8.97729C22.2458 9.02355 22.2668 9.07003 22.2872 9.11651C22.2927 9.12903 22.2978 9.14156 22.3033 9.15408C22.3182 9.18867 22.3328 9.22327 22.3468 9.25786C22.3534 9.27399 22.36 9.28991 22.3662 9.30604C22.3795 9.33957 22.3927 9.37332 22.4052 9.40685C22.4105 9.42128 22.416 9.4355 22.4213 9.44994C22.4377 9.49429 22.4532 9.53865 22.4682 9.58301C22.4695 9.58683 22.471 9.59065 22.4723 9.59447C22.4884 9.64265 22.5037 9.69104 22.5183 9.73942C22.523 9.75471 22.5275 9.7702 22.5319 9.78569C22.5417 9.81901 22.5512 9.85233 22.5604 9.88587C22.5652 9.90412 22.5701 9.92258 22.5748 9.94105C22.5829 9.97204 22.5907 10.003 22.5979 10.034C22.6024 10.0523 22.6068 10.0707 22.6109 10.0892C22.6181 10.121 22.6249 10.1529 22.6312 10.1845C22.6349 10.2017 22.6385 10.2184 22.6416 10.2352C22.6495 10.277 22.6569 10.3184 22.6637 10.3598C22.6648 10.3659 22.6661 10.3723 22.6669 10.3785C22.6745 10.426 22.6809 10.4733 22.6868 10.5205C22.6885 10.534 22.6898 10.5474 22.6913 10.5608C22.6951 10.5947 22.6985 10.6285 22.7017 10.6622C22.703 10.6784 22.7043 10.6945 22.7055 10.7106C22.7079 10.7427 22.7098 10.7747 22.7113 10.8065C22.7119 10.8218 22.7127 10.8369 22.7134 10.852C22.7151 10.8972 22.7161 10.9424 22.7159 10.9869C22.7157 11.0339 22.7147 11.0797 22.7125 11.1249C22.7119 11.1376 22.711 11.1499 22.7102 11.1627C22.7083 11.1937 22.7064 11.2247 22.7036 11.255C22.7021 11.2724 22.7 11.2894 22.6981 11.3066C22.6956 11.3323 22.6926 11.3577 22.689 11.3828C22.6866 11.4012 22.6839 11.4193 22.6809 11.4375C22.6773 11.4604 22.6733 11.4832 22.669 11.5057C22.6654 11.5258 22.6614 11.546 22.6571 11.5657C22.6527 11.5859 22.6482 11.6058 22.6433 11.6258C22.6376 11.6489 22.6317 11.6718 22.6255 11.6945C22.6204 11.7122 22.6155 11.7298 22.6102 11.747C22.602 11.7741 22.593 11.8004 22.5837 11.8268C22.5788 11.8408 22.5739 11.8552 22.5688 11.869C22.5521 11.9129 22.5343 11.9556 22.5149 11.9966C22.5001 12.0282 22.4844 12.0592 22.468 12.0893C22.4676 12.0897 22.4674 12.0902 22.467 12.0906C22.4508 12.1199 22.4337 12.1481 22.416 12.1757C22.3906 12.2158 22.363 12.2534 22.3345 12.2894C22.3275 12.2981 22.3205 12.3066 22.3135 12.3151C22.2859 12.3484 22.2571 12.3805 22.2269 12.4102C22.2248 12.4125 22.2227 12.4149 22.2204 12.4172C22.1881 12.4484 22.1541 12.4771 22.1193 12.5042C22.1108 12.5108 22.1024 12.5174 22.0939 12.5235C22.0582 12.5501 22.0215 12.5751 21.9835 12.5974L22.5992 12.2396C22.6374 12.2175 22.6739 12.1922 22.7096 12.1659C22.718 12.1596 22.7265 12.153 22.735 12.1466C22.7698 12.1192 22.804 12.0906 22.8361 12.0592C22.8384 12.057 22.8403 12.0547 22.8426 12.0524C22.8728 12.0227 22.9014 11.9906 22.9292 11.9573C22.9362 11.9488 22.9432 11.9403 22.95 11.9316C22.9787 11.8955 23.0063 11.858 23.0317 11.8179C23.0326 11.8168 23.0334 11.8159 23.0341 11.8147C23.051 11.7881 23.0672 11.761 23.0827 11.7327C23.0829 11.7323 23.0833 11.7319 23.0835 11.7315C23.0994 11.7026 23.1145 11.6733 23.1289 11.643C23.1296 11.6415 23.13 11.64 23.1308 11.6387C23.1499 11.5978 23.1678 11.5551 23.1843 11.5112C23.1858 11.5074 23.1877 11.504 23.189 11.5001C23.193 11.4899 23.196 11.4789 23.1996 11.4687C23.2087 11.4426 23.2177 11.4163 23.2259 11.3893C23.2283 11.3821 23.2308 11.3753 23.2329 11.3679C23.2359 11.3577 23.2382 11.3469 23.2412 11.3365C23.2474 11.314 23.2533 11.2913 23.259 11.2679C23.2614 11.2586 23.2641 11.2495 23.2665 11.2397C23.2686 11.2293 23.2705 11.2183 23.2726 11.2079C23.2771 11.1881 23.2811 11.1682 23.2849 11.148C23.2866 11.1374 23.2892 11.1274 23.2911 11.117C23.2932 11.1047 23.2947 11.0918 23.2966 11.0795C23.2994 11.0614 23.3023 11.0434 23.3047 11.0249C23.3059 11.0156 23.3079 11.0067 23.3089 10.9969C23.311 10.9812 23.3123 10.9647 23.314 10.9487C23.3157 10.9316 23.3176 10.9146 23.3193 10.8972C23.3199 10.8902 23.321 10.8832 23.3214 10.8762C23.3233 10.8526 23.3244 10.8286 23.3259 10.8046C23.3265 10.7921 23.3276 10.7798 23.3282 10.7671L23.3289 10.7577C23.3303 10.718 23.3314 10.6775 23.3317 10.6363V10.6291C23.3318 10.5916 23.3312 10.554 23.3301 10.516Z" fill="#FF9800"/>
<path fill-rule="evenodd" clip-rule="evenodd" d="M20.2132 6.65196C21.5997 7.45252 22.7205 9.39363 22.7159 10.9869C22.7114 12.5801 21.5833 13.223 20.1968 12.4224C18.8103 11.6219 17.6895 9.68078 17.6941 8.08753C17.6986 6.49427 18.8266 5.85141 20.2132 6.65196Z" fill="#FFD715"/>
<path fill-rule="evenodd" clip-rule="evenodd" d="M19.972 9.15837L19.9744 8.34763C19.7863 8.27186 19.6554 8.32747 19.6547 8.56687C19.6541 8.78696 19.7844 8.97479 19.972 9.15837ZM20.2286 10.7903C20.4368 10.8684 20.5599 10.7752 20.5604 10.5638C20.561 10.3437 20.4228 10.1559 20.2312 9.97018L20.2286 10.7903ZM20.2327 9.39778C20.6567 9.76983 21.154 10.1835 21.1521 10.8773C21.1506 11.3552 20.8231 11.6125 20.2274 11.3151L20.2261 11.6948L19.9652 11.5443L19.9665 11.1602C19.4404 10.8049 19.0658 10.2645 19.0552 9.6947L19.6671 10.0481C19.6828 10.273 19.7802 10.4749 19.9678 10.6302L19.9705 9.73481C19.5505 9.37061 19.0571 8.94932 19.0592 8.25595C19.0607 7.70244 19.4453 7.563 19.9759 7.82214L19.9769 7.44287L20.2378 7.59335L20.2367 7.97282C20.7467 8.31431 21.0884 8.82644 21.1232 9.40521L20.5073 9.04971C20.4918 8.85764 20.3942 8.66047 20.2352 8.5119L20.2327 9.39778Z" fill="white"/>
</g>
</g>
</g>
<defs>
<linearGradient id="paint0_linear_7_24" x1="0.453125" y1="0" x2="51.4531" y2="51" gradientUnits="userSpaceOnUse">
<stop stop-color="#0386E8"/>
<stop offset="1" stop-color="#0CA7EE"/>
</linearGradient>
<linearGradient id="paint1_linear_7_24" x1="-5.5248" y1="-2.74807" x2="22.4321" y2="24.3442" gradientUnits="userSpaceOnUse">
<stop stop-color="#4D8EFF"/>
<stop offset="1" stop-color="#52E4FF"/>
</linearGradient>
<linearGradient id="paint2_linear_7_24" x1="54.9257" y1="54.8995" x2="24.1702" y2="25.0952" gradientUnits="userSpaceOnUse">
<stop stop-color="#4D8EFF"/>
<stop offset="1" stop-color="#52E4FF"/>
</linearGradient>
<clipPath id="clip0_7_24">
<rect width="51" height="51" fill="white" transform="translate(0.453125)"/>
</clipPath>
</defs>
</svg>
